<?xml version="1.0" encoding="utf-8"?>
<!-- Generator: Adobe Illustrator 23.0.2, SVG Export Plug-In . SVG Version: 6.00 Build 0)  -->
<svg version="1.1" id="Layer_1" xmlns="http://www.w3.org/2000/svg" xmlns:xlink="http://www.w3.org/1999/xlink" x="0px" y="0px"
	 viewBox="0 0 981 225" style="enable-background:new 0 0 981 225;" xml:space="preserve">
<style type="text/css">
	.st0{fill:#FFFFFF;stroke:#000000;stroke-miterlimit:10;}
	.st1{fill:none;stroke:#000000;stroke-miterlimit:10;}
</style>
<path class="st0" d="M54,73.78c18.19-10.17,39.35-18.06,72,0"/>
<path class="st1" d="M54,162c17.52-5.68,33.52-12.71,72,0"/>
<path class="st0" d="M126,73.78c18.19-10.17,39.35-18.06,72,0"/>
<path class="st1" d="M126,162c17.52-5.68,33.52-12.71,72,0"/>
<line class="st1" x1="126" y1="73.78" x2="126" y2="162"/>
<line class="st1" x1="54" y1="73.78" x2="54" y2="162"/>
<line class="st1" x1="63" y1="90" x2="63" y2="135"/>
<line class="st1" x1="486" y1="85" x2="486" y2="130"/>
<line class="st1" x1="117" y1="90" x2="117" y2="135"/>
<line class="st1" x1="135" y1="90" x2="135" y2="135"/>
<line class="st1" x1="189" y1="90" x2="189" y2="135"/>
<line class="st1" x1="198" y1="73.78" x2="198" y2="162"/>
<line class="st1" x1="54" y1="162" x2="198" y2="162"/>
<path class="st0" d="M234,71.18c18.19-10.41,39.35-18.49,72,0"/>
<path class="st1" d="M234,161.51c17.52-5.82,33.52-13.01,72,0"/>
<path class="st0" d="M306,71.18"/>
<path class="st1" d="M378,161.51"/>
<path class="st1" d="M306,161.51"/>
<line class="st1" x1="306" y1="71.18" x2="306" y2="161.51"/>
<line class="st1" x1="234" y1="71.18" x2="234" y2="161.51"/>
<line class="st1" x1="378" y1="71.18" x2="378" y2="161.51"/>
<line class="st1" x1="234" y1="161.51" x2="378" y2="161.51"/>
<path class="st1" d="M306,71.18c23.54-7.82,47.9-15.48,56.21-26.18"/>
<path class="st1" d="M306.17,162c23.52-8.38,49.84-17.01,56.47-23.84"/>
<line class="st1" x1="362.21" y1="45" x2="362.17" y2="138.8"/>
<line class="st1" x1="378" y1="71.18" x2="363.33" y2="71.18"/>
<path class="st0" d="M414,73.02c18.19-10.26,39.35-18.21,72,0"/>
<path class="st1" d="M414,162c17.52-5.73,33.52-12.82,72,0"/>
<path class="st0" d="M486,73.02"/>
<path class="st1" d="M558,162"/>
<path class="st1" d="M486,162"/>
<line class="st1" x1="486" y1="73.02" x2="486" y2="162"/>
<line class="st1" x1="414" y1="73.02" x2="414" y2="162"/>
<line class="st1" x1="558" y1="73.02" x2="558" y2="162"/>
<line class="st1" x1="414" y1="162" x2="558" y2="162"/>
<path class="st1" d="M489.42,161.91c12.36-4.1,27.41-5.28,23.58-26.91"/>
<line class="st1" x1="513" y1="45" x2="512.96" y2="137.39"/>
<line class="st1" x1="558" y1="73.02" x2="513" y2="72"/>
<path class="st1" d="M549.78,47.23"/>
<path class="st1" d="M486,73.02c13.6-4.6,29.91-6.69,27.19-26.48"/>
<path class="st1" d="M594,162c19.72-5.68,37.71-12.71,81,0"/>
<path class="st0" d="M675,72c18.19-7.52,39.35-13.35,72,0"/>
<path class="st1" d="M675,162c17.52-4.86,33.52-10.87,72,0"/>
<line class="st1" x1="675" y1="72" x2="675" y2="162"/>
<line class="st1" x1="594" y1="72" x2="594" y2="162"/>
<line class="st1" x1="747" y1="72" x2="747" y2="163.03"/>
<line class="st1" x1="594" y1="162" x2="747" y2="162"/>
<path class="st1" d="M674.05,162"/>
<line class="st1" x1="612" y1="45" x2="612" y2="135"/>
<path class="st1" d="M612,72"/>
<path class="st1" d="M594,73.03"/>
<path class="st0" d="M783,72c18.19-10.17,39.35-18.06,72,0"/>
<path class="st1" d="M783,160.22c17.52-5.68,33.52-12.71,72,0"/>
<path class="st0" d="M855,72c18.19-10.17,39.35-18.06,72,0"/>
<path class="st1" d="M855,160.22c17.52-5.68,33.52-12.71,72,0"/>
<line class="st1" x1="855" y1="72" x2="855" y2="160.22"/>
<line class="st1" x1="783" y1="72" x2="783" y2="160.22"/>
<line class="st1" x1="927" y1="72" x2="927" y2="160.22"/>
<line class="st1" x1="783" y1="160.22" x2="927" y2="160.22"/>
<path class="st0" d="M63,89.37c13.65-7.17,29.51-12.74,54,0"/>
<path class="st0" d="M63,135c13.65-8.49,29.51-15.07,54,0"/>
<path class="st0" d="M135,88.78c13.65-7.31,29.51-12.99,54,0"/>
<path class="st0" d="M135,135c13.65-7.17,29.51-12.74,54,0"/>
<line class="st1" x1="243" y1="92" x2="243" y2="137"/>
<line class="st1" x1="297" y1="92" x2="297" y2="137"/>
<path class="st0" d="M243,91.37c13.65-7.17,29.51-12.74,54,0"/>
<path class="st0" d="M243,137c13.65-8.49,29.51-15.07,54,0"/>
<line class="st1" x1="792" y1="90" x2="792" y2="135"/>
<line class="st1" x1="846" y1="90" x2="846" y2="135"/>
<path class="st0" d="M792,90c13.65-7.17,29.51-12.74,54,0"/>
<path class="st0" d="M792,135c13.65-8.49,29.51-15.07,54,0"/>
<line class="st1" x1="864" y1="90" x2="864" y2="135"/>
<line class="st1" x1="918" y1="90" x2="918" y2="135"/>
<path class="st0" d="M864,89.37c13.65-7.17,29.51-12.74,54,0"/>
<path class="st0" d="M864,135c13.65-8.49,29.51-15.07,54,0"/>
<line class="st1" x1="684" y1="91.03" x2="684" y2="136.03"/>
<line class="st1" x1="738" y1="91.03" x2="738" y2="136.03"/>
<path class="st0" d="M684,90.39c13.65-7.17,29.51-12.74,54,0"/>
<path class="st0" d="M684,136.03c13.65-8.49,29.51-15.07,54,0"/>
<path class="st1" d="M612,45c27.65-5.12,44.07,13.6,63,27"/>
<path class="st1" d="M612,135c27.65-5.12,44.07,13.6,63,27"/>
<line class="st1" x1="594" y1="72" x2="612" y2="72"/>
<line class="st1" x1="423" y1="90" x2="423" y2="135"/>
<line class="st1" x1="477" y1="90" x2="477" y2="135"/>
<path class="st0" d="M423,89.37c13.65-7.17,29.51-12.74,54,0"/>
<path class="st0" d="M423,135c13.65-8.49,29.51-15.07,54,0"/>
</svg>
